TITLE ""
FILE "DISC1Track19.mp3" MP3
  TRACK 01 AUDIO
    TITLE "DISC1Track19_01"
    INDEX 01 00:00:00
  TRACK 02 AUDIO
    TITLE "DISC1Track19_02"
    INDEX 01 00:01:41
  TRACK 03 AUDIO
    TITLE "DISC1Track19_03"
    INDEX 01 00:01:55
  TRACK 04 AUDIO
    TITLE "DISC1Track19_04"
    INDEX 01 00:05:33
  TRACK 05 AUDIO
    TITLE "DISC1Track19_05"
    INDEX 01 00:08:41
  TRACK 06 AUDIO
    TITLE "DISC1Track19_06"
    INDEX 01 00:11:14
  TRACK 07 AUDIO
    TITLE "DISC1Track19_07"
    INDEX 01 00:11:28
  TRACK 08 AUDIO
    TITLE "DISC1Track19_08"
    INDEX 01 00:14:40
  TRACK 09 AUDIO
    TITLE "DISC1Track19_09"
    INDEX 01 00:17:46
  TRACK 10 AUDIO
    TITLE "DISC1Track19_10"
    INDEX 01 00:20:25
  TRACK 11 AUDIO
    TITLE "DISC1Track19_11"
    INDEX 01 00:20:40
  TRACK 12 AUDIO
    TITLE "DISC1Track19_12"
    INDEX 01 00:23:54
  TRACK 13 AUDIO
    TITLE "DISC1Track19_13"
    INDEX 01 00:27:25
  TRACK 14 AUDIO
    TITLE "DISC1Track19_14"
    INDEX 01 00:30:37
  TRACK 15 AUDIO
    TITLE "DISC1Track19_15"
    INDEX 01 00:30:54
  TRACK 16 AUDIO
    TITLE "DISC1Track19_16"
    INDEX 01 00:34:66
  TRACK 17 AUDIO
    TITLE "DISC1Track19_17"
    INDEX 01 00:38:64
  TRACK 18 AUDIO
    TITLE "DISC1Track19_18"
    INDEX 01 00:42:26
  TRACK 19 AUDIO
    TITLE "DISC1Track19_19"
    INDEX 01 00:42:32
  TRACK 20 AUDIO
    TITLE "DISC1Track19_20"
    INDEX 01 00:45:68
  TRACK 21 AUDIO
    TITLE "DISC1Track19_21"
    INDEX 01 00:49:30
  TRACK 22 AUDIO
    TITLE "DISC1Track19_22"
    INDEX 01 00:52:36
  TRACK 23 AUDIO
    TITLE "DISC1Track19_23"
    INDEX 01 00:52:50
  TRACK 24 AUDIO
    TITLE "DISC1Track19_24"
    INDEX 01 00:55:52
  TRACK 25 AUDIO
    TITLE "DISC1Track19_25"
    INDEX 01 00:58:61
  TRACK 26 AUDIO
    TITLE "DISC1Track19_26"
    INDEX 01 01:01:39
  TRACK 27 AUDIO
    TITLE "DISC1Track19_27"
    INDEX 01 01:01:55
  TRACK 28 AUDIO
    TITLE "DISC1Track19_28"
    INDEX 01 01:03:25
  TRACK 29 AUDIO
    TITLE "DISC1Track19_29"
    INDEX 01 01:05:49
  TRACK 30 AUDIO
    TITLE "DISC1Track19_30"
    INDEX 01 01:07:36
  TRACK 31 AUDIO
    TITLE "DISC1Track19_31"
    INDEX 01 01:07:48
  TRACK 32 AUDIO
    TITLE "DISC1Track19_32"
    INDEX 01 01:10:13
  TRACK 33 AUDIO
    TITLE "DISC1Track19_33"
    INDEX 01 01:12:31
  TRACK 34 AUDIO
    TITLE "DISC1Track19_34"
    INDEX 01 01:14:28
  TRACK 35 AUDIO
    TITLE "DISC1Track19_35"
    INDEX 01 01:14:46
  TRACK 36 AUDIO
    TITLE "DISC1Track19_36"
    INDEX 01 01:17:17
  TRACK 37 AUDIO
    TITLE "DISC1Track19_37"
    INDEX 01 01:20:15
  TRACK 38 AUDIO
    TITLE "DISC1Track19_38"
    INDEX 01 01:22:53
  TRACK 39 AUDIO
    TITLE "DISC1Track19_39"
    INDEX 01 01:22:71
  TRACK 40 AUDIO
    TITLE "DISC1Track19_40"
    INDEX 01 01:25:54
  TRACK 41 AUDIO
    TITLE "DISC1Track19_41"
    INDEX 01 01:28:54
  TRACK 42 AUDIO
    TITLE "DISC1Track19_42"
    INDEX 01 01:31:31
  TRACK 43 AUDIO
    TITLE "DISC1Track19_43"
    INDEX 01 01:31:46
  TRACK 44 AUDIO
    TITLE "DISC1Track19_44"
    INDEX 01 01:35:23
  TRACK 45 AUDIO
    TITLE "DISC1Track19_45"
    INDEX 01 01:39:18
  TRACK 46 AUDIO
    TITLE "DISC1Track19_46"
    INDEX 01 01:42:64
